<svg xmlns="http://www.w3.org/2000/svg" viewBox="0 0 512 512" role="img" aria-labelledby="title desc">
  <title id="title">Serena Light</title>
  <desc id="desc">Serena Light semantic navigation logo.</desc>
  <defs>
    <linearGradient id="bg" x1="58" y1="38" x2="455" y2="470" gradientUnits="userSpaceOnUse">
      <stop stop-color="#251B50"/>
      <stop offset="1" stop-color="#0E1425"/>
    </linearGradient>
    <linearGradient id="beam" x1="155" y1="91" x2="371" y2="316" gradientUnits="userSpaceOnUse">
      <stop stop-color="#B69CFF"/>
      <stop offset="0.5" stop-color="#6D5EF7"/>
      <stop offset="1" stop-color="#45E6D0"/>
    </linearGradient>
    <filter id="glow" x="-40%" y="-40%" width="180%" height="180%">
      <feGaussianBlur stdDeviation="8" result="blur"/>
      <feMerge><feMergeNode in="blur"/><feMergeNode in="SourceGraphic"/></feMerge>
    </filter>
  </defs>
  <rect x="16" y="16" width="480" height="480" rx="112" fill="url(#bg)"/>
  <circle cx="256" cy="205" r="121" fill="none" stroke="#FFFFFF" stroke-opacity=".12" stroke-width="3"/>
  <path d="M256 60v29M256 321v29M111 205h29M372 205h29" stroke="#C4B5FD" stroke-linecap="round" stroke-width="8"/>
  <path d="M184 132c23-29 62-42 97-29 30 11 50 37 50 65 0 40-35 57-72 62-33 5-58 15-58 41 0 21 19 37 44 41 30 5 63-7 85-34" fill="none" stroke="url(#beam)" stroke-linecap="round" stroke-width="23" filter="url(#glow)"/>
  <path d="m326 269 14 37-38-13" fill="none" stroke="#45E6D0" stroke-linecap="round" stroke-linejoin="round" stroke-width="10"/>
  <g fill="#F8FAFC" stroke="#6D5EF7" stroke-width="7">
    <circle cx="184" cy="132" r="13"/>
    <circle cx="331" cy="168" r="13"/>
    <circle cx="201" cy="271" r="13"/>
  </g>
  <text x="256" y="409" fill="#F8FAFC" font-family="Inter, ui-sans-serif, system-ui, sans-serif" font-size="48" font-weight="700" letter-spacing="7" text-anchor="middle">SERENA</text>
  <text x="256" y="451" fill="#78E7D8" font-family="Inter, ui-sans-serif, system-ui, sans-serif" font-size="24" font-weight="600" letter-spacing="12" text-anchor="middle">LIGHT</text>
</svg>
